<?xml version="1.0" encoding="UTF-8"?>
<svg version="1.1" xmlns="http://www.w3.org/2000/svg" width="512" height="512">
<path d="M0 0 C4.48704349 4.05970601 8.1863465 9.39116333 8.86328125 15.5390625 C9.07754662 22.64365113 7.90579792 28.40148228 3.29296875 33.98828125 C-0.80342689 37.83578197 -5.73673238 40.30026641 -10.62426758 43.0012207 C-48.07357434 64.12182699 -74.48318787 101.49799481 -86.1875 142.375 C-97.68890685 185.53710615 -91.47059388 231.3475479 -69.68701172 270.2265625 C-47.40189323 308.54407768 -10.25885016 336.77326168 32.48046875 348.34765625 C77.0923389 359.75655893 122.93468289 352.53290051 162.59619141 329.61083984 C171.59175537 324.13123157 179.79431963 317.53192765 187.48828125 310.359375 C189.38064419 308.60193373 191.31755249 306.95073504 193.3125 305.3125 C223.33317851 279.54068782 239.25203813 236.27009606 242.44189453 197.96484375 C245.38705929 156.30843345 232.30636875 112.71857855 205.18603516 80.67480469 C202.24533157 77.32925679 199.1983356 74.09422854 196.09667969 70.89794922 C194.69646911 69.44895891 193.3201732 67.97697129 191.9453125 66.50390625 C183.60330049 57.77821119 174.24740679 50.66296201 163.875 44.51953125 C162.67435913 43.80796875 162.67435913 43.80796875 161.44946289 43.08203125 C159.90654472 42.1806148 158.35407911 41.29526094 156.79077148 40.4296875 C150.59755904 36.85048877 145.92695041 32.28085124 143.625 25.375 C142.93597595 18.17962024 142.67537125 11.98027895 147.13671875 6.0234375 C151.59040435 1.0904839 155.90806428 -2.13310354 162.72265625 -2.84375 C171.73981944 -3.21495397 178.78638955 0.74697383 186.25 5.375 C187.03052734 5.85630371 187.81105469 6.33760742 188.61523438 6.83349609 C199.01441532 13.36375727 208.37365777 21.01752307 217.39453125 29.33203125 C219.45074126 31.21538998 221.55578226 33.01582631 223.6875 34.8125 C238.31563222 47.66311018 249.91852302 64.60667389 259.625 81.375 C260.01139648 82.03935059 260.39779297 82.70370117 260.79589844 83.38818359 C287.67692077 130.22154899 294.20921641 188.55948549 280.60522461 240.63452148 C279.40706734 244.92601557 278.0521439 249.15469667 276.625 253.375 C276.1921167 254.66132324 276.1921167 254.66132324 275.75048828 255.97363281 C257.22781682 309.88873169 217.53003947 353.12569989 166.5 378.0625 C113.62942199 403.09508219 54.73728343 404.09890424 -0.015625 384.7578125 C-51.41749518 365.89206945 -93.84357688 325.35794161 -116.94921875 275.953125 C-140.8932788 223.28600968 -142.61097849 164.52501086 -122.52734375 110.33984375 C-111.95439606 82.5678794 -95.82870455 58.8055979 -75.375 37.375 C-74.61445312 36.57320312 -73.85390625 35.77140625 -73.0703125 34.9453125 C-56.98369658 18.40071463 -24.37618645 -11.73668237 0 0 Z " fill="#000000" transform="translate(180.375,90.625)"/>
<path d="M0 0 C5.55649834 3.70433223 8.1002166 7.59057668 10 14 C10.56805347 18.81419999 10.55851993 23.60846996 10.53344727 28.44897461 C10.54051657 29.89219541 10.54926582 31.3354088 10.55955505 32.77861023 C10.58194592 36.67544148 10.57913369 40.5718646 10.57023358 44.46873546 C10.56510222 47.73150813 10.57243361 50.99420555 10.57970566 54.25697047 C10.59667198 61.95873485 10.59317196 69.66030095 10.57641602 77.36206055 C10.55949675 85.28694048 10.57533366 93.21126948 10.6076389 101.13608927 C10.63439516 107.96019098 10.6415946 114.78412184 10.63312382 121.6082707 C10.62821226 125.67523498 10.63031347 129.74186798 10.65091133 133.80879021 C10.66936399 137.63485329 10.66319456 141.46012838 10.63871193 145.28614998 C10.63373421 146.68326558 10.6371142 148.08044222 10.64986038 149.47750854 C10.72731977 158.70345182 9.84821211 166.48075294 3.55739689 173.642272 C-1.68012106 178.3992053 -7.4800213 179.55325243 -14.34375 179.3671875 C-20.17006249 178.56178548 -25.02873713 176.2471597 -28.92578125 171.8046875 C-32.85493402 166.12195103 -34.12111996 161.93206005 -34.14044189 155.03009033 C-34.14615204 153.80768646 -34.15186218 152.58528259 -34.15774536 151.32583618 C-34.15899063 149.97406016 -34.16011575 148.62228402 -34.16113281 147.27050781 C-34.16576305 145.84449129 -34.17078798 144.41847601 -34.17617798 142.99246216 C-34.18928508 139.120385 -34.19574375 135.24832516 -34.20018864 131.37622929 C-34.20312237 128.95529257 -34.20722777 126.53436055 -34.21169281 124.11342621 C-34.22536392 116.53366851 -34.2350322 108.9539216 -34.2388947 101.37415242 C-34.24337324 92.63424609 -34.2609132 83.89449631 -34.2898953 75.15463758 C-34.31153742 68.39270117 -34.32160035 61.63080873 -34.32293582 54.86883807 C-34.32398213 50.83322549 -34.32985264 46.79776016 -34.34775543 42.76218414 C-34.36427977 38.96347764 -34.36637062 35.16502839 -34.35761642 31.36629868 C-34.35684835 29.97639907 -34.3611584 28.58648538 -34.37107468 27.19662094 C-34.44220796 16.60041571 -33.63303726 8.81477624 -26 1 C-18.15473162 -4.54909227 -8.33347424 -4.64751448 0 0 Z " fill="#000000" transform="translate(267,26)"/>
</svg>
