<svg version="1.2" xmlns="http://www.w3.org/2000/svg" viewBox="0 0 32 34" width="32" height="34">
	<title>f28</title>
	<style>
		.s0 { fill: #434343 } 
	</style>
	<g>
		<g>
			<path fill-rule="evenodd" class="s0" d="m21.4 3.6v4.9c3.5 1.9 5.6 5.5 5.6 9.6 0 5.9-5 10.8-11 10.8-6 0-10.9-4.9-10.9-10.8 0-4.2 2-7.8 5.5-9.7v-4.8c-6.1 2-10.2 7.8-10.2 14.5 0 8.4 7 15.3 15.6 15.3 8.6 0 15.6-6.9 15.6-15.3 0-6.6-4.1-12.4-10.2-14.5z"/>
			<path fill-rule="evenodd" class="s0" d="m15.9 16.7c1.7 0 2.9-1.1 2.9-2.2v-11.9c0-1.3-1.2-2.2-2.9-2.2-1.7 0-2.9 0.9-2.9 2.2v11.9c0 1.1 1.2 2.2 2.9 2.2z"/>
		</g>
	</g>
</svg>