<?xml version="1.0" encoding="UTF-8"?>
<!-- Generated by Pixelmator Pro 3.7.1 -->
<svg width="961" height="961" viewBox="0 0 961 961" xmlns="http://www.w3.org/2000/svg">
    <path id="Rectangle" fill="#f02a30" fill-rule="evenodd" stroke="none" d="M 312.256622 962.089722 L -0.743334 962.256531 L -0.910136 649.256592 L 103.089851 649.201172 L 103.201225 858.201111 L 312.201202 858.089722 L 312.256622 962.089722 Z M 649.201172 857.910156 L 858.201111 857.798767 L 858.089722 648.798828 L 962.089722 648.743408 L 962.256531 961.743347 L 649.256592 961.910156 L 649.201172 857.910156 Z M 961.910156 311.743408 L 857.910156 311.798828 L 857.798767 102.798889 L 648.798828 102.910278 L 648.743408 -1.089722 L 961.743347 -1.256531 L 961.910156 311.743408 Z M -1.256529 -0.743347 L -1.089728 312.256592 L 102.910255 312.201172 L 102.798882 103.201233 L 311.798859 103.089844 L 311.743439 -0.910156 L -1.256529 -0.743347 Z"/>
    <path id="Rectangle-copy" fill="#f02a30" fill-rule="evenodd" stroke="none" d="M 645.695129 795.808899 L 480.575195 961.10498 L 315.704193 796.409546 L 389.243317 722.870422 L 480.496857 814.026733 L 572.156006 722.269775 L 645.695129 795.808899 Z M 164.648544 646.237671 L 238.187653 572.698608 L 146.064362 480.673431 L 238.262863 388.376587 L 164.723709 314.837463 L -1.013885 480.75177 L 164.648544 646.237671 Z M 723.236877 572.123169 L 796.776001 645.662292 L 962.013855 480.24826 L 796.851685 315.262024 L 723.312561 388.801147 L 814.935608 480.326599 L 723.236877 572.123169 Z M 645.796082 165.090149 L 572.256897 238.629333 L 480.503143 146.973267 L 389.343719 238.229919 L 315.804565 164.690796 L 480.424805 -0.10498 L 645.796082 165.090149 Z"/>
</svg>
