<?xml version="1.0" encoding="UTF-8" standalone="no"?>
<svg
   version="1.1"
   viewBox="0 0 480 400"
   preserveAspectRatio="xMidYMid slice"
   id="svg51"
   sodipodi:docname="pppixelate.svg"
   width="480"
   height="400"
   inkscape:version="1.4.2 (f4327f4, 2025-05-13)"
   xmlns:inkscape="http://www.inkscape.org/namespaces/inkscape"
   xmlns:sodipodi="http://sodipodi.sourceforge.net/DTD/sodipodi-0.dtd"
   xmlns="http://www.w3.org/2000/svg"
   xmlns:svg="http://www.w3.org/2000/svg">
  <sodipodi:namedview
     id="namedview51"
     pagecolor="#505050"
     bordercolor="#ffffff"
     borderopacity="1"
     inkscape:showpageshadow="0"
     inkscape:pageopacity="0"
     inkscape:pagecheckerboard="1"
     inkscape:deskcolor="#505050"
     inkscape:zoom="0.7327394"
     inkscape:cx="168.5456"
     inkscape:cy="272.26596"
     inkscape:window-width="1920"
     inkscape:window-height="1009"
     inkscape:window-x="-8"
     inkscape:window-y="-8"
     inkscape:window-maximized="1"
     inkscape:current-layer="svg51" />
  <defs
     id="defs50">
    <pattern
       id="pppixelate-pattern"
       width="20"
       height="20"
       patternUnits="userSpaceOnUse"
       patternTransform="translate(1 0) scale(40) rotate(0)"
       shape-rendering="crispEdges">
      <rect
         width="1"
         height="1"
         x="9"
         y="3"
         fill="#f2922e"
         id="rect1" />
      <rect
         width="1"
         height="1"
         x="10"
         y="3"
         fill="#f07237"
         id="rect2" />
      <rect
         width="1"
         height="1"
         x="8"
         y="4"
         fill="#dab131"
         id="rect3" />
      <rect
         width="1"
         height="1"
         x="9"
         y="4"
         fill="#f6912e"
         id="rect4" />
      <rect
         width="1"
         height="1"
         x="10"
         y="4"
         fill="#f37337"
         id="rect5" />
      <rect
         width="1"
         height="1"
         x="11"
         y="4"
         fill="#f0583b"
         id="rect6" />
      <rect
         width="1"
         height="1"
         x="7"
         y="5"
         fill="#9dc345"
         id="rect7" />
      <rect
         width="1"
         height="1"
         x="8"
         y="5"
         fill="#b5b43e"
         id="rect8" />
      <rect
         width="1"
         height="1"
         x="9"
         y="5"
         fill="#e2993d"
         id="rect9" />
      <rect
         width="1"
         height="1"
         x="10"
         y="5"
         fill="#f67a34"
         id="rect10" />
      <rect
         width="1"
         height="1"
         x="11"
         y="5"
         fill="#f86a35"
         id="rect11" />
      <rect
         width="1"
         height="1"
         x="12"
         y="5"
         fill="#ef5442"
         id="rect12" />
      <rect
         width="1"
         height="1"
         x="7"
         y="6"
         fill="#86c64e"
         id="rect13" />
      <rect
         width="1"
         height="1"
         x="8"
         y="6"
         fill="#75b45e"
         id="rect14" />
      <rect
         width="1"
         height="1"
         x="9"
         y="6"
         fill="#cc954d"
         id="rect15" />
      <rect
         width="1"
         height="1"
         x="10"
         y="6"
         fill="#ef7947"
         id="rect16" />
      <rect
         width="1"
         height="1"
         x="11"
         y="6"
         fill="#e16652"
         id="rect17" />
      <rect
         width="1"
         height="1"
         x="12"
         y="6"
         fill="#e14f59"
         id="rect18" />
      <rect
         width="1"
         height="1"
         x="6"
         y="7"
         fill="#7cc251"
         id="rect19" />
      <rect
         width="1"
         height="1"
         x="7"
         y="7"
         fill="#71c25c"
         id="rect20" />
      <rect
         width="1"
         height="1"
         x="8"
         y="7"
         fill="#5ca98e"
         id="rect21" />
      <rect
         width="1"
         height="1"
         x="9"
         y="7"
         fill="#5c91b3"
         id="rect22" />
      <rect
         width="1"
         height="1"
         x="10"
         y="7"
         fill="#8373b0"
         id="rect23" />
      <rect
         width="1"
         height="1"
         x="11"
         y="7"
         fill="#746fc3"
         id="rect24" />
      <rect
         width="1"
         height="1"
         x="12"
         y="7"
         fill="#995da8"
         id="rect25" />
      <rect
         width="1"
         height="1"
         x="13"
         y="7"
         fill="#9c5b97"
         id="rect26" />
      <rect
         width="1"
         height="1"
         x="6"
         y="8"
         fill="#61c37d"
         id="rect27" />
      <rect
         width="1"
         height="1"
         x="7"
         y="8"
         fill="#54b880"
         id="rect28" />
      <rect
         width="1"
         height="1"
         x="8"
         y="8"
         fill="#4197de"
         id="rect29" />
      <rect
         width="1"
         height="1"
         x="11"
         y="8"
         fill="#4197de"
         id="rect30" />
      <rect
         width="1"
         height="1"
         x="12"
         y="8"
         fill="#706ece"
         id="rect31" />
      <rect
         width="1"
         height="1"
         x="13"
         y="8"
         fill="#8f64b4"
         id="rect32" />
      <rect
         width="1"
         height="1"
         x="6"
         y="9"
         fill="#61c37d"
         id="rect33" />
      <rect
         width="1"
         height="1"
         x="7"
         y="9"
         fill="#43aeab"
         id="rect34" />
      <rect
         width="1"
         height="1"
         x="12"
         y="9"
         fill="#4a80ea"
         id="rect35" />
      <rect
         width="1"
         height="1"
         x="13"
         y="9"
         fill="#6c73d8"
         id="rect36" />
      <rect
         width="1"
         height="1"
         x="5"
         y="10"
         fill="#6dc694"
         id="rect37" />
      <rect
         width="1"
         height="1"
         x="6"
         y="10"
         fill="#62bad5"
         id="rect38" />
      <rect
         width="1"
         height="1"
         x="7"
         y="10"
         fill="#47a8dc"
         id="rect39" />
      <rect
         width="1"
         height="1"
         x="12"
         y="10"
         fill="#3d89fb"
         id="rect40" />
      <rect
         width="1"
         height="1"
         x="13"
         y="10"
         fill="#4a81f0"
         id="rect41" />
      <rect
         width="1"
         height="1"
         x="14"
         y="10"
         fill="#6579e1"
         id="rect42" />
      <rect
         width="1"
         height="1"
         x="5"
         y="11"
         fill="#6bc7a3"
         id="rect43" />
      <rect
         width="1"
         height="1"
         x="6"
         y="11"
         fill="#64b6f6"
         id="rect44" />
      <rect
         width="1"
         height="1"
         x="13"
         y="11"
         fill="#3886fb"
         id="rect45" />
      <rect
         width="1"
         height="1"
         x="14"
         y="11"
         fill="#4881f4"
         id="rect46" />
      <rect
         width="1"
         height="1"
         x="4"
         y="12"
         fill="#67b9f4"
         id="rect47" />
      <rect
         width="1"
         height="1"
         x="5"
         y="12"
         fill="#64b6f6"
         id="rect48" />
      <rect
         width="1"
         height="1"
         x="14"
         y="12"
         fill="#3883f9"
         id="rect49" />
      <rect
         width="1"
         height="1"
         x="15"
         y="12"
         fill="#3d85fc"
         id="rect50" />
    </pattern>
  </defs>
  <g
     id="g101"
     transform="translate(-161,-120)">
    <rect
       width="40"
       height="40"
       x="361"
       y="120"
       fill="#f2922e"
       id="rect52"
       style="stroke-width:40" />
    <rect
       width="40"
       height="40"
       x="401"
       y="120"
       fill="#f07237"
       id="rect53"
       style="stroke-width:40" />
    <rect
       width="40"
       height="40"
       x="321"
       y="160"
       fill="#dab131"
       id="rect54"
       style="stroke-width:40" />
    <rect
       width="40"
       height="40"
       x="361"
       y="160"
       fill="#f6912e"
       id="rect55"
       style="stroke-width:40" />
    <rect
       width="40"
       height="40"
       x="401"
       y="160"
       fill="#f37337"
       id="rect56"
       style="stroke-width:40" />
    <rect
       width="40"
       height="40"
       x="441"
       y="160"
       fill="#f0583b"
       id="rect57"
       style="stroke-width:40" />
    <rect
       width="40"
       height="40"
       x="281"
       y="200"
       fill="#9dc345"
       id="rect58"
       style="stroke-width:40" />
    <rect
       width="40"
       height="40"
       x="321"
       y="200"
       fill="#b5b43e"
       id="rect59"
       style="stroke-width:40" />
    <rect
       width="40"
       height="40"
       x="361"
       y="200"
       fill="#e2993d"
       id="rect60"
       style="stroke-width:40" />
    <rect
       width="40"
       height="40"
       x="401"
       y="200"
       fill="#f67a34"
       id="rect61"
       style="stroke-width:40" />
    <rect
       width="40"
       height="40"
       x="441"
       y="200"
       fill="#f86a35"
       id="rect62"
       style="stroke-width:40" />
    <rect
       width="40"
       height="40"
       x="481"
       y="200"
       fill="#ef5442"
       id="rect63"
       style="stroke-width:40" />
    <rect
       width="40"
       height="40"
       x="281"
       y="240"
       fill="#86c64e"
       id="rect64"
       style="stroke-width:40" />
    <rect
       width="40"
       height="40"
       x="321"
       y="240"
       fill="#75b45e"
       id="rect65"
       style="stroke-width:40" />
    <rect
       width="40"
       height="40"
       x="361"
       y="240"
       fill="#cc954d"
       id="rect66"
       style="stroke-width:40" />
    <rect
       width="40"
       height="40"
       x="401"
       y="240"
       fill="#ef7947"
       id="rect67"
       style="stroke-width:40" />
    <rect
       width="40"
       height="40"
       x="441"
       y="240"
       fill="#e16652"
       id="rect68"
       style="stroke-width:40" />
    <rect
       width="40"
       height="40"
       x="481"
       y="240"
       fill="#e14f59"
       id="rect69"
       style="stroke-width:40" />
    <rect
       width="40"
       height="40"
       x="241"
       y="280"
       fill="#7cc251"
       id="rect70"
       style="stroke-width:40" />
    <rect
       width="40"
       height="40"
       x="281"
       y="280"
       fill="#71c25c"
       id="rect71"
       style="stroke-width:40" />
    <rect
       width="40"
       height="40"
       x="321"
       y="280"
       fill="#5ca98e"
       id="rect72"
       style="stroke-width:40" />
    <rect
       width="40"
       height="40"
       x="361"
       y="280"
       fill="#5c91b3"
       id="rect73"
       style="stroke-width:40" />
    <rect
       width="40"
       height="40"
       x="401"
       y="280"
       fill="#8373b0"
       id="rect74"
       style="stroke-width:40" />
    <rect
       width="40"
       height="40"
       x="441"
       y="280"
       fill="#746fc3"
       id="rect75"
       style="stroke-width:40" />
    <rect
       width="40"
       height="40"
       x="481"
       y="280"
       fill="#995da8"
       id="rect76"
       style="stroke-width:40" />
    <rect
       width="40"
       height="40"
       x="521"
       y="280"
       fill="#9c5b97"
       id="rect77"
       style="stroke-width:40" />
    <rect
       width="40"
       height="40"
       x="241"
       y="320"
       fill="#61c37d"
       id="rect78"
       style="stroke-width:40" />
    <rect
       width="40"
       height="40"
       x="281"
       y="320"
       fill="#54b880"
       id="rect79"
       style="stroke-width:40" />
    <rect
       width="40"
       height="40"
       x="321"
       y="320"
       fill="#4197de"
       id="rect80"
       style="stroke:none;stroke-width:40" />
    <rect
       width="40"
       height="40"
       x="441"
       y="320"
       fill="#4197de"
       id="rect81"
       style="stroke-width:40" />
    <rect
       width="40"
       height="40"
       x="481"
       y="320"
       fill="#706ece"
       id="rect82"
       style="stroke-width:40" />
    <rect
       width="40"
       height="40"
       x="521"
       y="320"
       fill="#8f64b4"
       id="rect83"
       style="stroke-width:40" />
    <rect
       width="40"
       height="40"
       x="241"
       y="360"
       fill="#61c37d"
       id="rect84"
       style="stroke-width:40" />
    <rect
       width="40"
       height="40"
       x="281"
       y="360"
       fill="#43aeab"
       id="rect85"
       style="stroke-width:40" />
    <rect
       width="40"
       height="40"
       x="481"
       y="360"
       fill="#4a80ea"
       id="rect86"
       style="stroke-width:40" />
    <rect
       width="40"
       height="40"
       x="521"
       y="360"
       fill="#6c73d8"
       id="rect87"
       style="stroke-width:40" />
    <rect
       width="40"
       height="40"
       x="201"
       y="400"
       fill="#6dc694"
       id="rect88"
       style="stroke-width:40" />
    <rect
       width="40"
       height="40"
       x="241"
       y="400"
       fill="#62bad5"
       id="rect89"
       style="stroke-width:40" />
    <rect
       width="40"
       height="40"
       x="281"
       y="400"
       fill="#47a8dc"
       id="rect90"
       style="stroke-width:40" />
    <rect
       width="40"
       height="40"
       x="481"
       y="400"
       fill="#3d89fb"
       id="rect91"
       style="stroke-width:40" />
    <rect
       width="40"
       height="40"
       x="521"
       y="400"
       fill="#4a81f0"
       id="rect92"
       style="stroke-width:40" />
    <rect
       width="40"
       height="40"
       x="561"
       y="400"
       fill="#6579e1"
       id="rect93"
       style="stroke-width:40" />
    <rect
       width="40"
       height="40"
       x="201"
       y="440"
       fill="#6bc7a3"
       id="rect94"
       style="stroke-width:40" />
    <rect
       width="40"
       height="40"
       x="241"
       y="440"
       fill="#64b6f6"
       id="rect95"
       style="stroke-width:40" />
    <rect
       width="40"
       height="40"
       x="521"
       y="440"
       fill="#3886fb"
       id="rect96"
       style="stroke-width:40" />
    <rect
       width="40"
       height="40"
       x="561"
       y="440"
       fill="#4881f4"
       id="rect97"
       style="stroke-width:40" />
    <rect
       width="40"
       height="40"
       x="161"
       y="480"
       fill="#67b9f4"
       id="rect98"
       style="stroke-width:40" />
    <rect
       width="40"
       height="40"
       x="201"
       y="480"
       fill="#64b6f6"
       id="rect99"
       style="stroke-width:40" />
    <rect
       width="40"
       height="40"
       x="561"
       y="480"
       fill="#3883f9"
       id="rect100"
       style="stroke-width:40" />
    <rect
       width="40"
       height="40"
       x="601"
       y="480"
       fill="#3d85fc"
       id="rect101"
       style="stroke-width:40" />
  </g>
</svg>
